<?xml version="1.0" encoding="UTF-8" standalone="no"?>
<!-- Generator: Adobe Illustrator 28.0.0, SVG Export Plug-In . SVG Version: 6.00 Build 0)  -->

<svg
   version="1.1"
   x="0px"
   y="0px"
   viewBox="0 0 47 47"
   xml:space="preserve"
   id="svg64"
   sodipodi:docname="consulting.svg"
   inkscape:version="1.2.2 (732a01da63, 2022-12-09)"
   width="47"
   height="47"
   xmlns:inkscape="http://www.inkscape.org/namespaces/inkscape"
   xmlns:sodipodi="http://sodipodi.sourceforge.net/DTD/sodipodi-0.dtd"
   xmlns="http://www.w3.org/2000/svg"
   xmlns:svg="http://www.w3.org/2000/svg"><defs
   id="defs68" /><sodipodi:namedview
   id="namedview66"
   pagecolor="#ffffff"
   bordercolor="#000000"
   borderopacity="0.25"
   inkscape:showpageshadow="2"
   inkscape:pageopacity="0.0"
   inkscape:pagecheckerboard="0"
   inkscape:deskcolor="#d1d1d1"
   showgrid="false"
   inkscape:zoom="9.44"
   inkscape:cx="47.404661"
   inkscape:cy="43.802966"
   inkscape:window-width="1920"
   inkscape:window-height="1111"
   inkscape:window-x="-9"
   inkscape:window-y="-9"
   inkscape:window-maximized="1"
   inkscape:current-layer="svg64" />
<style
   type="text/css"
   id="style2">
	.st0{display:none;}
	.st1{display:inline;}
	.st2{fill:none;}
	.st3{fill:#F05A28;}
	.st4{opacity:0.97;fill:#76CEFF;enable-background:new    ;}
	.st5{fill:#272828;}
	.st6{fill:#76CEFF;}
</style>
<g
   id="Layer_1"
   class="st0">
	<g
   id="Layer_2_00000031924750755158830970000010190239545921085082_"
   class="st1">
		<g
   id="g24">
			<rect
   x="20"
   y="73.599998"
   class="st2"
   width="60.5"
   height="22.4"
   id="rect4" />
			<path
   class="st3"
   d="m 27.4,80.9 c -0.5,-0.2 -0.9,-0.4 -1.2,-0.6 l 0.4,-1 c 0.3,0.2 0.6,0.4 1.1,0.6 0.4,0.1 0.8,0.2 1.3,0.2 0.5,0 0.9,-0.1 1.2,-0.2 0.3,-0.2 0.4,-0.4 0.4,-0.7 0,-0.2 -0.1,-0.4 -0.2,-0.5 -0.1,-0.1 -0.3,-0.2 -0.5,-0.3 -0.2,-0.1 -0.5,-0.2 -0.9,-0.2 -0.5,-0.1 -1,-0.3 -1.3,-0.4 -0.3,-0.1 -0.6,-0.3 -0.9,-0.6 -0.2,-0.3 -0.4,-0.6 -0.4,-1.1 0,-0.4 0.1,-0.7 0.3,-1.1 0.2,-0.4 0.5,-0.6 1,-0.8 0.5,-0.2 0.9,-0.3 1.6,-0.3 0.4,0 0.8,0.1 1.3,0.2 0.4,0.1 0.8,0.3 1.1,0.5 l -0.4,1 c -0.3,-0.2 -0.6,-0.3 -1,-0.4 -0.3,-0.1 -0.7,-0.1 -1,-0.1 -0.5,0 -0.9,0.1 -1.1,0.3 -0.2,0.2 -0.4,0.4 -0.4,0.7 0,0.2 0.1,0.4 0.2,0.5 0.1,0.1 0.3,0.2 0.5,0.3 0.2,0.1 0.5,0.2 0.9,0.2 0.5,0.1 0.9,0.2 1.3,0.4 0.3,0.1 0.6,0.3 0.9,0.6 0.3,0.3 0.4,0.6 0.4,1.1 0,0.4 -0.1,0.7 -0.3,1 -0.2,0.3 -0.5,0.6 -1,0.8 -0.5,0.2 -0.9,0.3 -1.6,0.3 -0.7,-0.2 -1.2,-0.3 -1.7,-0.4 z"
   id="path6" />
			<path
   class="st3"
   d="m 36.2,80.7 c -0.1,0.1 -0.3,0.2 -0.5,0.3 -0.2,0.1 -0.4,0.1 -0.7,0.1 -0.6,0 -1,-0.2 -1.4,-0.5 -0.3,-0.3 -0.5,-0.8 -0.5,-1.3 v -2.6 h -0.9 v -1 h 0.9 v -1.2 h 1.2 v 1.2 h 1.4 v 1 h -1.4 v 2.5 c 0,0.3 0.1,0.5 0.2,0.6 0.1,0.1 0.3,0.2 0.5,0.2 0.3,0 0.5,-0.1 0.7,-0.2 z"
   id="path8" />
			<path
   class="st3"
   d="m 40.3,75.6 v 1.2 c -0.1,0 -0.2,0 -0.3,0 -0.5,0 -0.9,0.1 -1.1,0.4 -0.2,0.3 -0.4,0.7 -0.4,1.2 V 81 h -1.2 v -5.3 h 1.2 v 0.8 c 0.3,-0.6 0.9,-0.9 1.8,-0.9 z"
   id="path10" />
			<path
   class="st3"
   d="M 46.6,75.6 V 81 h -1.2 v -0.7 c -0.2,0.2 -0.4,0.4 -0.8,0.6 -0.3,0.1 -0.6,0.2 -1,0.2 -0.7,0 -1.3,-0.2 -1.7,-0.6 -0.4,-0.4 -0.6,-1 -0.6,-1.8 v -3 h 1.2 v 2.9 c 0,0.5 0.1,0.8 0.3,1.1 0.2,0.3 0.5,0.4 0.9,0.4 0.4,0 0.8,-0.1 1.1,-0.4 0.3,-0.3 0.4,-0.7 0.4,-1.2 v -2.7 h 1.4 z"
   id="path12" />
			<path
   class="st3"
   d="m 49.2,80.7 c -0.4,-0.2 -0.8,-0.6 -1,-1 -0.2,-0.4 -0.4,-0.9 -0.4,-1.4 0,-0.5 0.1,-1 0.4,-1.4 0.2,-0.4 0.6,-0.7 1,-1 0.4,-0.3 0.9,-0.3 1.5,-0.3 0.5,0 1,0.1 1.4,0.3 0.4,0.2 0.7,0.5 0.9,0.9 l -1,0.6 c -0.2,-0.2 -0.3,-0.4 -0.6,-0.6 -0.2,-0.1 -0.5,-0.2 -0.8,-0.2 -0.5,0 -0.9,0.2 -1.2,0.5 -0.3,0.3 -0.5,0.7 -0.5,1.2 0,0.5 0.2,0.9 0.5,1.2 0.3,0.3 0.7,0.5 1.2,0.5 0.3,0 0.5,-0.1 0.8,-0.2 0.2,-0.1 0.4,-0.3 0.6,-0.6 l 1,0.6 c -0.2,0.4 -0.5,0.7 -0.9,0.9 -0.4,0.2 -0.9,0.3 -1.4,0.3 -0.6,0.1 -1.1,-0.1 -1.5,-0.3 z"
   id="path14" />
			<path
   class="st3"
   d="m 57.3,80.7 c -0.1,0.1 -0.3,0.2 -0.5,0.3 -0.2,0.1 -0.4,0.1 -0.7,0.1 -0.6,0 -1,-0.2 -1.4,-0.5 -0.3,-0.3 -0.5,-0.8 -0.5,-1.3 v -2.6 h -0.9 v -1 h 0.9 v -1.2 h 1.2 v 1.2 H 57 v 1 h -1.4 v 2.5 c 0,0.3 0.1,0.5 0.2,0.6 0.1,0.2 0.2,0.2 0.5,0.2 0.3,0 0.5,-0.1 0.7,-0.2 z"
   id="path16" />
			<path
   class="st3"
   d="M 63.5,75.6 V 81 h -1.2 v -0.7 c -0.2,0.2 -0.5,0.4 -0.8,0.6 -0.3,0.2 -0.6,0.2 -1,0.2 -0.7,0 -1.3,-0.2 -1.7,-0.6 -0.4,-0.4 -0.6,-1 -0.6,-1.8 v -3 h 1.2 v 2.9 c 0,0.5 0.1,0.8 0.3,1.1 0.2,0.3 0.5,0.4 0.9,0.4 0.4,0 0.8,-0.1 1.1,-0.4 0.3,-0.3 0.4,-0.7 0.4,-1.2 v -2.7 h 1.4 z"
   id="path18" />
			<path
   class="st3"
   d="m 68.3,75.6 v 1.2 c -0.1,0 -0.2,0 -0.3,0 -0.5,0 -0.9,0.1 -1.1,0.4 -0.2,0.3 -0.4,0.7 -0.4,1.2 V 81 h -1.2 v -5.3 h 1.2 v 0.8 c 0.2,-0.6 0.9,-0.9 1.8,-0.9 z"
   id="path20" />
			<path
   class="st3"
   d="m 74.3,78.7 h -4.2 c 0.1,0.4 0.3,0.7 0.6,0.9 0.3,0.2 0.7,0.3 1.2,0.3 0.6,0 1.1,-0.2 1.5,-0.6 l 0.7,0.8 c -0.2,0.3 -0.5,0.5 -0.9,0.7 -0.4,0.1 -0.8,0.2 -1.2,0.2 -0.6,0 -1.1,-0.1 -1.6,-0.3 -0.4,-0.2 -0.8,-0.6 -1,-1 -0.2,-0.4 -0.4,-0.9 -0.4,-1.4 0,-0.5 0.1,-1 0.4,-1.4 0.2,-0.4 0.6,-0.7 1,-1 0.4,-0.3 0.9,-0.3 1.4,-0.3 0.5,0 1,0.1 1.4,0.3 0.4,0.2 0.7,0.6 1,1 0.2,0.4 0.3,0.9 0.3,1.4 -0.2,0.1 -0.2,0.3 -0.2,0.4 z m -3.7,-1.8 c -0.3,0.2 -0.4,0.6 -0.5,0.9 h 3 c -0.1,-0.4 -0.2,-0.7 -0.5,-0.9 -0.3,-0.2 -0.6,-0.4 -1,-0.4 -0.4,0.1 -0.8,0.2 -1,0.4 z"
   id="path22" />
		</g>
	</g>
</g>
<g
   id="Layer_2">
	
</g>
<g
   id="Layer_3_00000114784127181144707500000009170100070695441053_"
   style="fill:#f5f5f5;fill-opacity:1"
   transform="translate(-26.366694,-18.426723)">
	<path
   class="st5"
   d="m 29.1,45.9 v 14.2 h 11.5 v -3.9 h -4.4 l -2.9,-4.3 0.5,-0.5 2.8,4.2 h 7.8 c 0,0 1.2,-0.6 1.2,-1.9 0,-1.3 -1.5,-1.9 -1.5,-1.9 h -3.7 v -4 c 0,0 0.1,-1.4 -1.3,-1.4 -1.4,0 -9.1,0 -9.1,0 z"
   id="path32"
   style="fill:#f5f5f5;fill-opacity:1" />
	<ellipse
   class="st5"
   cx="34.5"
   cy="41.099998"
   rx="4.1999998"
   ry="4.5"
   id="ellipse34"
   style="fill:#f5f5f5;fill-opacity:1" />
	<path
   class="st5"
   d="M 70.9,45.9 V 60.1 H 59.4 v -3.9 h 4.4 l 2.9,-4.3 -0.5,-0.5 -2.8,4.2 h -7.8 c 0,0 -1.2,-0.6 -1.2,-1.9 0,-1.3 1.5,-1.9 1.5,-1.9 h 3.7 v -4 c 0,0 -0.1,-1.4 1.3,-1.4 1.4,0 9.1,0 9.1,0 z"
   id="path36"
   style="fill:#f5f5f5;fill-opacity:1" />
	<ellipse
   class="st5"
   cx="65.5"
   cy="41.099998"
   rx="4.1999998"
   ry="4.5"
   id="ellipse38"
   style="fill:#f5f5f5;fill-opacity:1" />
	<path
   class="st5"
   d="m 31.4,63 2.3,-2.4 H 41 v -4.3 h 3.9 c 0,0 1.4,-0.9 1.4,-2.6 0,-1.7 -1.6,-2.5 -1.6,-2.5 l 0.9,-2.1 h 4.3 v 14 H 31.4 Z"
   id="path40"
   style="fill:#f5f5f5;fill-opacity:1" />
	<path
   class="st5"
   d="M 69.1,63 66.7,60.6 H 59 v -4.3 h -4 c 0,0 -1.5,-0.9 -1.5,-2.6 0,-1.7 1.7,-2.5 1.7,-2.5 l -1,-2.1 h -4.5 v 14 h 19.4 z"
   id="path42"
   style="fill:#f5f5f5;fill-opacity:1" />
	<circle
   class="st5"
   cx="45"
   cy="29.1"
   r="8.1999998"
   id="circle44"
   style="fill:#f5f5f5;fill-opacity:1" />
	<path
   class="st5"
   d="m 38.3,37.6 c 0,-0.1 0.7,-2.8 0.7,-2.8 l 2,1.4 z"
   id="path46"
   style="fill:#f5f5f5;fill-opacity:1" />
	<path
   class="st5"
   d="m 51,22.4 c 0,0 3.5,3 3,7.3 -0.5,4.4 -3.2,6.1 -3.2,6.1 0,0 6.9,0 6.9,-7.2 -0.1,-6 -6.7,-6.2 -6.7,-6.2 z"
   id="path48"
   style="fill:#f5f5f5;fill-opacity:1" />
	<polyline
   class="st5"
   points="55.1,34.1 60.5,37.9 56.3,32  "
   id="polyline50"
   style="fill:#f5f5f5;fill-opacity:1" />
</g>
<g
   id="Layer_4"
   transform="translate(-26.366694,-18.426723)"
   style="fill:#26577c;fill-opacity:1">
	<rect
   x="42.099998"
   y="30"
   class="st6"
   width="0.5"
   height="2.7"
   id="rect53"
   style="fill:#26577c;fill-opacity:1" />
	<rect
   x="45.5"
   y="30"
   class="st6"
   width="0.5"
   height="2.7"
   id="rect55"
   style="fill:#26577c;fill-opacity:1" />
	<rect
   x="43.799999"
   y="28.9"
   class="st6"
   width="0.5"
   height="3.8"
   id="rect57"
   style="fill:#26577c;fill-opacity:1" />
	<rect
   x="47.200001"
   y="28"
   class="st6"
   width="0.60000002"
   height="4.6999998"
   id="rect59"
   style="fill:#26577c;fill-opacity:1" />
	<polygon
   class="st6"
   points="47,26.1 45.3,27.7 44.1,26.6 42.1,28.1 41.7,27.7 44.1,25.8 45.2,26.7 46.6,25.7 46,24.9 47.7,25.2 47.6,26.8 "
   id="polygon61"
   style="fill:#26577c;fill-opacity:1" />
</g>
</svg>
