<?xml version="1.0" encoding="UTF-8" standalone="no"?>
<!-- Generator: Adobe Illustrator 28.0.0, SVG Export Plug-In . SVG Version: 6.00 Build 0)  -->

<svg
   version="1.1"
   x="0px"
   y="0px"
   viewBox="0 0 47 47"
   xml:space="preserve"
   id="svg59"
   sodipodi:docname="op.svg"
   inkscape:version="1.2.2 (732a01da63, 2022-12-09)"
   width="47"
   height="47"
   xmlns:inkscape="http://www.inkscape.org/namespaces/inkscape"
   xmlns:sodipodi="http://sodipodi.sourceforge.net/DTD/sodipodi-0.dtd"
   xmlns="http://www.w3.org/2000/svg"
   xmlns:svg="http://www.w3.org/2000/svg"><defs
   id="defs63" /><sodipodi:namedview
   id="namedview61"
   pagecolor="#ffffff"
   bordercolor="#000000"
   borderopacity="0.25"
   inkscape:showpageshadow="2"
   inkscape:pageopacity="0.0"
   inkscape:pagecheckerboard="0"
   inkscape:deskcolor="#d1d1d1"
   showgrid="false"
   inkscape:zoom="75.52"
   inkscape:cx="21.543962"
   inkscape:cy="17.578125"
   inkscape:window-width="1920"
   inkscape:window-height="1111"
   inkscape:window-x="-9"
   inkscape:window-y="-9"
   inkscape:window-maximized="1"
   inkscape:current-layer="g56" />
<style
   type="text/css"
   id="style2">
	.st0{display:none;}
	.st1{display:inline;}
	.st2{fill:none;}
	.st3{fill:#F05A28;}
	.st4{opacity:0.97;fill:#76CEFF;enable-background:new    ;}
	.st5{fill:#232323;}
	.st6{fill:none;stroke:#FFFFFF;stroke-width:2;stroke-miterlimit:10;}
</style>
<g
   id="Layer_1"
   class="st0">
	<g
   id="Layer_2_00000031924750755158830970000010190239545921085082_"
   class="st1">
		<g
   id="g24">
			<rect
   x="20"
   y="73.599998"
   class="st2"
   width="60.5"
   height="22.4"
   id="rect4" />
			<path
   class="st3"
   d="m 27.4,80.9 c -0.5,-0.2 -0.9,-0.4 -1.2,-0.6 l 0.4,-1 c 0.3,0.2 0.6,0.4 1.1,0.6 0.4,0.1 0.8,0.2 1.3,0.2 0.5,0 0.9,-0.1 1.2,-0.2 0.3,-0.2 0.4,-0.4 0.4,-0.7 0,-0.2 -0.1,-0.4 -0.2,-0.5 -0.1,-0.1 -0.3,-0.2 -0.5,-0.3 -0.2,-0.1 -0.5,-0.2 -0.9,-0.2 -0.5,-0.1 -1,-0.3 -1.3,-0.4 -0.3,-0.1 -0.6,-0.3 -0.9,-0.6 -0.2,-0.3 -0.4,-0.6 -0.4,-1.1 0,-0.4 0.1,-0.7 0.3,-1.1 0.2,-0.4 0.5,-0.6 1,-0.8 0.5,-0.2 0.9,-0.3 1.6,-0.3 0.4,0 0.8,0.1 1.3,0.2 0.4,0.1 0.8,0.3 1.1,0.5 l -0.4,1 c -0.3,-0.2 -0.6,-0.3 -1,-0.4 -0.3,-0.1 -0.7,-0.1 -1,-0.1 -0.5,0 -0.9,0.1 -1.1,0.3 -0.2,0.2 -0.4,0.4 -0.4,0.7 0,0.2 0.1,0.4 0.2,0.5 0.1,0.1 0.3,0.2 0.5,0.3 0.2,0.1 0.5,0.2 0.9,0.2 0.5,0.1 0.9,0.2 1.3,0.4 0.3,0.1 0.6,0.3 0.9,0.6 0.3,0.3 0.4,0.6 0.4,1.1 0,0.4 -0.1,0.7 -0.3,1 -0.2,0.3 -0.5,0.6 -1,0.8 -0.5,0.2 -0.9,0.3 -1.6,0.3 -0.7,-0.2 -1.2,-0.3 -1.7,-0.4 z"
   id="path6" />
			<path
   class="st3"
   d="m 36.2,80.7 c -0.1,0.1 -0.3,0.2 -0.5,0.3 -0.2,0.1 -0.4,0.1 -0.7,0.1 -0.6,0 -1,-0.2 -1.4,-0.5 -0.3,-0.3 -0.5,-0.8 -0.5,-1.3 v -2.6 h -0.9 v -1 h 0.9 v -1.2 h 1.2 v 1.2 h 1.4 v 1 h -1.4 v 2.5 c 0,0.3 0.1,0.5 0.2,0.6 0.1,0.1 0.3,0.2 0.5,0.2 0.3,0 0.5,-0.1 0.7,-0.2 z"
   id="path8" />
			<path
   class="st3"
   d="m 40.3,75.6 v 1.2 c -0.1,0 -0.2,0 -0.3,0 -0.5,0 -0.9,0.1 -1.1,0.4 -0.2,0.3 -0.4,0.7 -0.4,1.2 V 81 h -1.2 v -5.3 h 1.2 v 0.8 c 0.3,-0.6 0.9,-0.9 1.8,-0.9 z"
   id="path10" />
			<path
   class="st3"
   d="M 46.6,75.6 V 81 h -1.2 v -0.7 c -0.2,0.2 -0.4,0.4 -0.8,0.6 -0.3,0.1 -0.6,0.2 -1,0.2 -0.7,0 -1.3,-0.2 -1.7,-0.6 -0.4,-0.4 -0.6,-1 -0.6,-1.8 v -3 h 1.2 v 2.9 c 0,0.5 0.1,0.8 0.3,1.1 0.2,0.3 0.5,0.4 0.9,0.4 0.4,0 0.8,-0.1 1.1,-0.4 0.3,-0.3 0.4,-0.7 0.4,-1.2 v -2.7 h 1.4 z"
   id="path12" />
			<path
   class="st3"
   d="m 49.2,80.7 c -0.4,-0.2 -0.8,-0.6 -1,-1 -0.2,-0.4 -0.4,-0.9 -0.4,-1.4 0,-0.5 0.1,-1 0.4,-1.4 0.2,-0.4 0.6,-0.7 1,-1 0.4,-0.3 0.9,-0.3 1.5,-0.3 0.5,0 1,0.1 1.4,0.3 0.4,0.2 0.7,0.5 0.9,0.9 l -1,0.6 c -0.2,-0.2 -0.3,-0.4 -0.6,-0.6 -0.2,-0.1 -0.5,-0.2 -0.8,-0.2 -0.5,0 -0.9,0.2 -1.2,0.5 -0.3,0.3 -0.5,0.7 -0.5,1.2 0,0.5 0.2,0.9 0.5,1.2 0.3,0.3 0.7,0.5 1.2,0.5 0.3,0 0.5,-0.1 0.8,-0.2 0.2,-0.1 0.4,-0.3 0.6,-0.6 l 1,0.6 c -0.2,0.4 -0.5,0.7 -0.9,0.9 -0.4,0.2 -0.9,0.3 -1.4,0.3 -0.6,0.1 -1.1,-0.1 -1.5,-0.3 z"
   id="path14" />
			<path
   class="st3"
   d="m 57.3,80.7 c -0.1,0.1 -0.3,0.2 -0.5,0.3 -0.2,0.1 -0.4,0.1 -0.7,0.1 -0.6,0 -1,-0.2 -1.4,-0.5 -0.3,-0.3 -0.5,-0.8 -0.5,-1.3 v -2.6 h -0.9 v -1 h 0.9 v -1.2 h 1.2 v 1.2 H 57 v 1 h -1.4 v 2.5 c 0,0.3 0.1,0.5 0.2,0.6 0.1,0.2 0.2,0.2 0.5,0.2 0.3,0 0.5,-0.1 0.7,-0.2 z"
   id="path16" />
			<path
   class="st3"
   d="M 63.5,75.6 V 81 h -1.2 v -0.7 c -0.2,0.2 -0.5,0.4 -0.8,0.6 -0.3,0.2 -0.6,0.2 -1,0.2 -0.7,0 -1.3,-0.2 -1.7,-0.6 -0.4,-0.4 -0.6,-1 -0.6,-1.8 v -3 h 1.2 v 2.9 c 0,0.5 0.1,0.8 0.3,1.1 0.2,0.3 0.5,0.4 0.9,0.4 0.4,0 0.8,-0.1 1.1,-0.4 0.3,-0.3 0.4,-0.7 0.4,-1.2 v -2.7 h 1.4 z"
   id="path18" />
			<path
   class="st3"
   d="m 68.3,75.6 v 1.2 c -0.1,0 -0.2,0 -0.3,0 -0.5,0 -0.9,0.1 -1.1,0.4 -0.2,0.3 -0.4,0.7 -0.4,1.2 V 81 h -1.2 v -5.3 h 1.2 v 0.8 c 0.2,-0.6 0.9,-0.9 1.8,-0.9 z"
   id="path20" />
			<path
   class="st3"
   d="m 74.3,78.7 h -4.2 c 0.1,0.4 0.3,0.7 0.6,0.9 0.3,0.2 0.7,0.3 1.2,0.3 0.6,0 1.1,-0.2 1.5,-0.6 l 0.7,0.8 c -0.2,0.3 -0.5,0.5 -0.9,0.7 -0.4,0.1 -0.8,0.2 -1.2,0.2 -0.6,0 -1.1,-0.1 -1.6,-0.3 -0.4,-0.2 -0.8,-0.6 -1,-1 -0.2,-0.4 -0.4,-0.9 -0.4,-1.4 0,-0.5 0.1,-1 0.4,-1.4 0.2,-0.4 0.6,-0.7 1,-1 0.4,-0.3 0.9,-0.3 1.4,-0.3 0.5,0 1,0.1 1.4,0.3 0.4,0.2 0.7,0.6 1,1 0.2,0.4 0.3,0.9 0.3,1.4 -0.2,0.1 -0.2,0.3 -0.2,0.4 z m -3.7,-1.8 c -0.3,0.2 -0.4,0.6 -0.5,0.9 h 3 c -0.1,-0.4 -0.2,-0.7 -0.5,-0.9 -0.3,-0.2 -0.6,-0.4 -1,-0.4 -0.4,0.1 -0.8,0.2 -1,0.4 z"
   id="path22" />
		</g>
	</g>
</g>
<g
   id="Layer_2">
	
</g>
<g
   id="Layer_3_00000114784127181144707500000009170100070695441053_"
   transform="translate(-27.115747,-21.797466)"
   style="fill:#f5f5f5;fill-opacity:1">
	<path
   class="st5"
   d="m 39.2,52.2 h 22.1 c 0,0 10,-1 10,-9.8 0,-8.2 -10,-8.5 -10,-8.5 0,0 -1,-9.5 -10.8,-9.5 -10.9,0 -12.1,9.6 -12.1,9.6 0,0 -9.6,1.5 -9.6,9.4 0,8.8 10.4,8.8 10.4,8.8 z"
   id="path32"
   style="fill:#f5f5f5;fill-opacity:1" />
	<circle
   class="st5"
   cx="32.200001"
   cy="61.900002"
   r="4.3000002"
   id="circle34"
   style="fill:#f5f5f5;fill-opacity:1" />
	<circle
   class="st5"
   cx="50"
   cy="61.900002"
   r="4.3000002"
   id="circle36"
   style="fill:#f5f5f5;fill-opacity:1" />
	<circle
   class="st5"
   cx="67.699997"
   cy="61.900002"
   r="4.3000002"
   id="circle38"
   style="fill:#f5f5f5;fill-opacity:1" />
	<path
   class="st5"
   d="m 34.7,61 h 3.1 v -6.2 c 0,0 0.1,-0.9 0.9,-0.9 0.8,0 0.9,0.8 0.9,0.8 v 7.7 h -4.9 v -1.5"
   id="path40"
   style="fill:#f5f5f5;fill-opacity:1" />
	<path
   class="st5"
   d="m 64.7,61 h -3.1 v -6.2 c 0,0 -0.1,-0.9 -0.9,-0.9 -0.8,0 -0.9,0.8 -0.9,0.8 v 7.7 h 4.8 v -1.5"
   id="path42"
   style="fill:#f5f5f5;fill-opacity:1" />
	<g
   id="g56"
   style="fill:none;fill-opacity:0.98000002;stroke:#26577c;stroke-opacity:1">
		<path
   class="st6"
   d="m 42.2,39.4 c 0,-2.1 3.5,-3.9 7.9,-3.9"
   id="path44"
   style="fill:none;fill-opacity:0.98000002;stroke:#26577c;stroke-opacity:1" />
		<path
   class="st6"
   d="m 57.383986,39.39385 c 0,-2.094729 -3.373392,-3.89021 -7.462351,-3.89021"
   id="path46"
   style="fill:none;fill-opacity:0.98;stroke:#26577c;stroke-opacity:1" />
		<path
   class="st6"
   d="m 44,42.4 c 0,-1.7 2.7,-3 6.1,-3"
   id="path48"
   style="fill:none;fill-opacity:0.98000002;stroke:#26577c;stroke-opacity:1" />
		<path
   class="st6"
   d="m 55.692162,42.396873 c 0,-1.697342 -2.527463,-2.995309 -5.661517,-2.995309"
   id="path50"
   style="fill:none;fill-opacity:0.98;stroke:#26577c;stroke-opacity:1" />
		<path
   class="st6"
   d="m 46.1,44.9 c 0,-1 1.7,-1.9 3.9,-1.9"
   id="path52"
   style="fill:none;fill-opacity:0.98000002;stroke:#26577c;stroke-opacity:1" />
		<path
   class="st6"
   d="m 53.574634,44.889121 c 0,-0.992489 -1.658415,-1.885729 -3.731434,-1.885729"
   id="path54"
   style="fill:none;fill-opacity:0.98;stroke:#26577c;stroke-opacity:1" />
	</g>
</g>
</svg>
