<?xml version="1.0" encoding="UTF-8" standalone="no"?>
<!-- Generator: Adobe Illustrator 28.0.0, SVG Export Plug-In . SVG Version: 6.00 Build 0)  -->

<svg
   version="1.1"
   x="0px"
   y="0px"
   viewBox="0 0 47 47"
   xml:space="preserve"
   id="svg66"
   sodipodi:docname="train.svg"
   inkscape:version="1.2.2 (732a01da63, 2022-12-09)"
   width="47"
   height="47"
   xmlns:inkscape="http://www.inkscape.org/namespaces/inkscape"
   xmlns:sodipodi="http://sodipodi.sourceforge.net/DTD/sodipodi-0.dtd"
   xmlns="http://www.w3.org/2000/svg"
   xmlns:svg="http://www.w3.org/2000/svg"><defs
   id="defs70" /><sodipodi:namedview
   id="namedview68"
   pagecolor="#ffffff"
   bordercolor="#000000"
   borderopacity="0.25"
   inkscape:showpageshadow="2"
   inkscape:pageopacity="0.0"
   inkscape:pagecheckerboard="0"
   inkscape:deskcolor="#d1d1d1"
   showgrid="false"
   inkscape:zoom="18.88"
   inkscape:cx="16.631356"
   inkscape:cy="33.76589"
   inkscape:window-width="1920"
   inkscape:window-height="1111"
   inkscape:window-x="-9"
   inkscape:window-y="-9"
   inkscape:window-maximized="1"
   inkscape:current-layer="Layer_3_00000114784127181144707500000009170100070695441053_" />
<style
   type="text/css"
   id="style2">
	.st0{display:none;}
	.st1{display:inline;}
	.st2{fill:none;}
	.st3{fill:#F05A28;}
	.st4{opacity:0.97;fill:#76CEFF;enable-background:new    ;}
	.st5{fill:#272828;}
	.st6{fill:none;stroke:#272828;stroke-miterlimit:10;}
	.st7{fill:#76CEFF;}
</style>
<g
   id="Layer_1"
   class="st0">
	<g
   id="Layer_2_00000031924750755158830970000010190239545921085082_"
   class="st1">
		<g
   id="g24">
			<rect
   x="20"
   y="73.599998"
   class="st2"
   width="60.5"
   height="22.4"
   id="rect4" />
			<path
   class="st3"
   d="m 27.4,80.9 c -0.5,-0.2 -0.9,-0.4 -1.2,-0.6 l 0.4,-1 c 0.3,0.2 0.6,0.4 1.1,0.6 0.4,0.1 0.8,0.2 1.3,0.2 0.5,0 0.9,-0.1 1.2,-0.2 0.3,-0.2 0.4,-0.4 0.4,-0.7 0,-0.2 -0.1,-0.4 -0.2,-0.5 -0.1,-0.1 -0.3,-0.2 -0.5,-0.3 -0.2,-0.1 -0.5,-0.2 -0.9,-0.2 -0.5,-0.1 -1,-0.3 -1.3,-0.4 -0.3,-0.1 -0.6,-0.3 -0.9,-0.6 -0.2,-0.3 -0.4,-0.6 -0.4,-1.1 0,-0.4 0.1,-0.7 0.3,-1.1 0.2,-0.4 0.5,-0.6 1,-0.8 0.5,-0.2 0.9,-0.3 1.6,-0.3 0.4,0 0.8,0.1 1.3,0.2 0.4,0.1 0.8,0.3 1.1,0.5 l -0.4,1 c -0.3,-0.2 -0.6,-0.3 -1,-0.4 -0.3,-0.1 -0.7,-0.1 -1,-0.1 -0.5,0 -0.9,0.1 -1.1,0.3 -0.2,0.2 -0.4,0.4 -0.4,0.7 0,0.2 0.1,0.4 0.2,0.5 0.1,0.1 0.3,0.2 0.5,0.3 0.2,0.1 0.5,0.2 0.9,0.2 0.5,0.1 0.9,0.2 1.3,0.4 0.3,0.1 0.6,0.3 0.9,0.6 0.3,0.3 0.4,0.6 0.4,1.1 0,0.4 -0.1,0.7 -0.3,1 -0.2,0.3 -0.5,0.6 -1,0.8 -0.5,0.2 -0.9,0.3 -1.6,0.3 -0.7,-0.2 -1.2,-0.3 -1.7,-0.4 z"
   id="path6" />
			<path
   class="st3"
   d="m 36.2,80.7 c -0.1,0.1 -0.3,0.2 -0.5,0.3 -0.2,0.1 -0.4,0.1 -0.7,0.1 -0.6,0 -1,-0.2 -1.4,-0.5 -0.3,-0.3 -0.5,-0.8 -0.5,-1.3 v -2.6 h -0.9 v -1 h 0.9 v -1.2 h 1.2 v 1.2 h 1.4 v 1 h -1.4 v 2.5 c 0,0.3 0.1,0.5 0.2,0.6 0.1,0.1 0.3,0.2 0.5,0.2 0.3,0 0.5,-0.1 0.7,-0.2 z"
   id="path8" />
			<path
   class="st3"
   d="m 40.3,75.6 v 1.2 c -0.1,0 -0.2,0 -0.3,0 -0.5,0 -0.9,0.1 -1.1,0.4 -0.2,0.3 -0.4,0.7 -0.4,1.2 V 81 h -1.2 v -5.3 h 1.2 v 0.8 c 0.3,-0.6 0.9,-0.9 1.8,-0.9 z"
   id="path10" />
			<path
   class="st3"
   d="M 46.6,75.6 V 81 h -1.2 v -0.7 c -0.2,0.2 -0.4,0.4 -0.8,0.6 -0.3,0.1 -0.6,0.2 -1,0.2 -0.7,0 -1.3,-0.2 -1.7,-0.6 -0.4,-0.4 -0.6,-1 -0.6,-1.8 v -3 h 1.2 v 2.9 c 0,0.5 0.1,0.8 0.3,1.1 0.2,0.3 0.5,0.4 0.9,0.4 0.4,0 0.8,-0.1 1.1,-0.4 0.3,-0.3 0.4,-0.7 0.4,-1.2 v -2.7 h 1.4 z"
   id="path12" />
			<path
   class="st3"
   d="m 49.2,80.7 c -0.4,-0.2 -0.8,-0.6 -1,-1 -0.2,-0.4 -0.4,-0.9 -0.4,-1.4 0,-0.5 0.1,-1 0.4,-1.4 0.2,-0.4 0.6,-0.7 1,-1 0.4,-0.3 0.9,-0.3 1.5,-0.3 0.5,0 1,0.1 1.4,0.3 0.4,0.2 0.7,0.5 0.9,0.9 l -1,0.6 c -0.2,-0.2 -0.3,-0.4 -0.6,-0.6 -0.2,-0.1 -0.5,-0.2 -0.8,-0.2 -0.5,0 -0.9,0.2 -1.2,0.5 -0.3,0.3 -0.5,0.7 -0.5,1.2 0,0.5 0.2,0.9 0.5,1.2 0.3,0.3 0.7,0.5 1.2,0.5 0.3,0 0.5,-0.1 0.8,-0.2 0.2,-0.1 0.4,-0.3 0.6,-0.6 l 1,0.6 c -0.2,0.4 -0.5,0.7 -0.9,0.9 -0.4,0.2 -0.9,0.3 -1.4,0.3 -0.6,0.1 -1.1,-0.1 -1.5,-0.3 z"
   id="path14" />
			<path
   class="st3"
   d="m 57.3,80.7 c -0.1,0.1 -0.3,0.2 -0.5,0.3 -0.2,0.1 -0.4,0.1 -0.7,0.1 -0.6,0 -1,-0.2 -1.4,-0.5 -0.3,-0.3 -0.5,-0.8 -0.5,-1.3 v -2.6 h -0.9 v -1 h 0.9 v -1.2 h 1.2 v 1.2 H 57 v 1 h -1.4 v 2.5 c 0,0.3 0.1,0.5 0.2,0.6 0.1,0.2 0.2,0.2 0.5,0.2 0.3,0 0.5,-0.1 0.7,-0.2 z"
   id="path16" />
			<path
   class="st3"
   d="M 63.5,75.6 V 81 h -1.2 v -0.7 c -0.2,0.2 -0.5,0.4 -0.8,0.6 -0.3,0.2 -0.6,0.2 -1,0.2 -0.7,0 -1.3,-0.2 -1.7,-0.6 -0.4,-0.4 -0.6,-1 -0.6,-1.8 v -3 h 1.2 v 2.9 c 0,0.5 0.1,0.8 0.3,1.1 0.2,0.3 0.5,0.4 0.9,0.4 0.4,0 0.8,-0.1 1.1,-0.4 0.3,-0.3 0.4,-0.7 0.4,-1.2 v -2.7 h 1.4 z"
   id="path18" />
			<path
   class="st3"
   d="m 68.3,75.6 v 1.2 c -0.1,0 -0.2,0 -0.3,0 -0.5,0 -0.9,0.1 -1.1,0.4 -0.2,0.3 -0.4,0.7 -0.4,1.2 V 81 h -1.2 v -5.3 h 1.2 v 0.8 c 0.2,-0.6 0.9,-0.9 1.8,-0.9 z"
   id="path20" />
			<path
   class="st3"
   d="m 74.3,78.7 h -4.2 c 0.1,0.4 0.3,0.7 0.6,0.9 0.3,0.2 0.7,0.3 1.2,0.3 0.6,0 1.1,-0.2 1.5,-0.6 l 0.7,0.8 c -0.2,0.3 -0.5,0.5 -0.9,0.7 -0.4,0.1 -0.8,0.2 -1.2,0.2 -0.6,0 -1.1,-0.1 -1.6,-0.3 -0.4,-0.2 -0.8,-0.6 -1,-1 -0.2,-0.4 -0.4,-0.9 -0.4,-1.4 0,-0.5 0.1,-1 0.4,-1.4 0.2,-0.4 0.6,-0.7 1,-1 0.4,-0.3 0.9,-0.3 1.4,-0.3 0.5,0 1,0.1 1.4,0.3 0.4,0.2 0.7,0.6 1,1 0.2,0.4 0.3,0.9 0.3,1.4 -0.2,0.1 -0.2,0.3 -0.2,0.4 z m -3.7,-1.8 c -0.3,0.2 -0.4,0.6 -0.5,0.9 h 3 c -0.1,-0.4 -0.2,-0.7 -0.5,-0.9 -0.3,-0.2 -0.6,-0.4 -1,-0.4 -0.4,0.1 -0.8,0.2 -1,0.4 z"
   id="path22" />
		</g>
	</g>
</g>
<g
   id="Layer_2">
	
</g>
<g
   id="Layer_3_00000114784127181144707500000009170100070695441053_"
   transform="matrix(0.84331719,0,0,0.84331719,-0.17769144,0.35687861)">
	<path
   class="st5"
   d="m 3.3781969,28.321573 -2.59999997,17.1 H 4.7781969 l 1.7,-3.9 1.3,-2.9 -2.9,-4.3 0.5,-0.5 2.8,4.2 h 7.8000001 c 0,0 1.2,-0.6 1.2,-1.9 0,-1.3 -1.5,-1.9 -1.5,-1.9 h -3.7 v -4 c 0,0 0.1,-1.4 -1.3,-1.4 -1.4000001,0 -6.6000001,0 -6.6000001,0 z"
   id="path32"
   style="fill:#f5f5f5;fill-opacity:1" />
	<ellipse
   class="st5"
   cx="11.478196"
   cy="24.021572"
   rx="4.1999998"
   ry="4.5"
   id="ellipse34"
   style="fill:#f5f5f5;fill-opacity:1" />
	<path
   class="st5"
   d="m 52.678197,28.321573 2.6,17.1 h -4.1 l -1.8,-3.9 -1.4,-2.9 2.9,-4.3 -0.5,-0.5 -2.9,4.1 h -7.9 c 0,0 -1.2,-0.6 -1.2,-1.9 0,-1.3 1.5,-1.9 1.5,-1.9 h 3.8 v -4 c 0,0 -0.1,-1.4 1.3,-1.4 1.4,0 6.7,0 6.7,0 z"
   id="path36"
   style="fill:#f5f5f5;fill-opacity:1" />
	<ellipse
   class="st5"
   cx="44.278194"
   cy="24.021572"
   rx="4.3000002"
   ry="4.5"
   id="ellipse38"
   style="fill:#f5f5f5;fill-opacity:1" />
	<ellipse
   class="st5"
   cx="28.178198"
   cy="40.121574"
   rx="4.3000002"
   ry="4.5"
   id="ellipse40"
   style="fill:#f5f5f5;fill-opacity:1" />
	
	
	<polygon
   class="st6"
   points="37.7,47.6 62.3,47.6 70.1,65.8 30.6,65.5 "
   id="polygon46"
   transform="translate(-22.321803,-17.078427)"
   style="stroke:#f5f5f5;stroke-opacity:1" />
	<path
   class="st6"
   d="m 34.578197,23.821573 h -13.6 c -3,0 -5.5,-2.5 -5.5,-5.5 V 7.3215735 c 0,-3 2.5,-5.5 5.5,-5.5 h 13.6 c 3,0 5.5,2.5 5.5,5.5 V 18.321573 c 0,3.1 -2.5,5.5 -5.5,5.5 z"
   id="path48"
   style="stroke:#f5f5f5;stroke-opacity:1" />
	<path
   class="st5"
   d="m 21.178197,53.221573 c 0,0 -2.5,0.8 -0.6,-3.2 1.9,-4 3.4,-4.2 3.4,-4.2 h 4.2 v 7.4 z"
   id="path50"
   style="fill:#f5f5f5;fill-opacity:1" />
	<path
   class="st5"
   d="m 35.0893,53.121648 c 0,0 2.5,0.8 0.6,-3.2 -2,-3.8 -3.4,-4.1 -3.4,-4.1 h -4.2 v 7.4 z"
   id="path52"
   style="fill:#f5f5f5;fill-opacity:1" />
</g>

</svg>
